<svg xmlns="http://www.w3.org/2000/svg" width="54" height="46" viewBox="0 0 54 46">
  <metadata><?xpacket begin="﻿" id="W5M0MpCehiHzreSzNTczkc9d"?>
<x:xmpmeta xmlns:x="adobe:ns:meta/" x:xmptk="Adobe XMP Core 5.6-c138 79.159824, 2016/09/14-01:09:01        ">
   <rdf:RDF xmlns:rdf="http://www.w3.org/1999/02/22-rdf-syntax-ns#">
      <rdf:Description rdf:about=""/>
   </rdf:RDF>
</x:xmpmeta>
                                                                                                    
                                                                                                    
                                                                                                    
                                                                                                    
                                                                                                    
                                                                                                    
                                                                                                    
                                                                                                    
                                                                                                    
                                                                                                    
                                                                                                    
                                                                                                    
                                                                                                    
                                                                                                    
                                                                                                    
                                                                                                    
                                                                                                    
                                                                                                    
                                                                                                    
                                                                                                    
                           
<?xpacket end="w"?></metadata>
<defs>
    <style>
      .cls-1 {
        fill: #b2b3b3;
        fill-rule: evenodd;
      }
    </style>
  </defs>
  <path id="edu" class="cls-1" d="M774.409,7954.17l-25.86,16.99a1.17,1.17,0,0,0-.539.99,1.157,1.157,0,0,0,.539.99l11.1,7.66v5.04a8.411,8.411,0,0,0,3.846,7.07l10.916,6.91a1.125,1.125,0,0,0,1.189,0l10.916-6.91a8.4,8.4,0,0,0,3.846-7.07v-5.04L795,7978v8c0,3.18,1.9,5,5,5,0.627,0,1.353.08,1.353-.56S800.627,7990,800,7990a4.519,4.519,0,0,1-4-4v-9l5.457-3.85a1.189,1.189,0,0,0,.539-1,1.172,1.172,0,0,0-.539-0.99L775.6,7954.17A1.111,1.111,0,0,0,774.409,7954.17Zm14.85,31.67c0,2.06-2.052,4.83-3.759,5.91l-10.5,7.07-10.5-7.07a8.316,8.316,0,0,1-3.5-5.89v-4.72l13.41,8a1.125,1.125,0,0,0,1.189,0l13.4-8,0.26,4.7h0Zm11.61-13.69L775,7988.22l-25.862-16.07L775,7955.22Z" transform="translate(-748 -7954)"/>
</svg>
