<svg xmlns="http://www.w3.org/2000/svg" width="44" height="48" viewBox="0 0 44 48">
  <metadata><?xpacket begin="﻿" id="W5M0MpCehiHzreSzNTczkc9d"?>
<x:xmpmeta xmlns:x="adobe:ns:meta/" x:xmptk="Adobe XMP Core 5.6-c138 79.159824, 2016/09/14-01:09:01        ">
   <rdf:RDF xmlns:rdf="http://www.w3.org/1999/02/22-rdf-syntax-ns#">
      <rdf:Description rdf:about=""/>
   </rdf:RDF>
</x:xmpmeta>
                                                                                                    
                                                                                                    
                                                                                                    
                                                                                                    
                                                                                                    
                                                                                                    
                                                                                                    
                                                                                                    
                                                                                                    
                                                                                                    
                                                                                                    
                                                                                                    
                                                                                                    
                                                                                                    
                                                                                                    
                                                                                                    
                                                                                                    
                                                                                                    
                                                                                                    
                                                                                                    
                           
<?xpacket end="w"?></metadata>
<defs>
    <style>
      .cls-1 {
        fill: #b2b3b3;
        stroke: #b2b3b3;
        stroke-linejoin: round;
        stroke-width: 1px;
        fill-rule: evenodd;
      }
    </style>
  </defs>
  <path id="fin" class="cls-1" d="M375,7997.44c-10,0-18.449-2.69-18.449-5.87v-5.33c3.444,2.63,10.3,4.45,18.449,4.45,10.479,0,19-2.89,19-6.43v-5.92h-1.1c-2.018,2.54-9.4,4.48-17.906,4.48-10,0-18.449-2.68-18.449-5.87v-5.14c3.613,3.3,11.745,4.26,18.449,4.26,10.479,0,19-2.89,19-6.43v-7.21c0-3.55-8.526-6.43-19-6.43s-19,2.88-19,6.43,8.526,6.42,19,6.42a46.048,46.048,0,0,0,12.383-1.52l-0.183-.53a46.245,46.245,0,0,1-12.2,1.5c-10,0-18.449-2.69-18.449-5.87s8.448-5.87,18.449-5.87,18.45,2.68,18.45,5.87v7.21c0,3.18-8.449,5.87-18.45,5.87-8.5,0-15.888-1.94-17.906-4.48H356v5.92c0,3.54,8.526,6.43,19,6.43,6.7,0,14.7-1.48,18.45-3.93v4.81c0,3.18-8.449,5.87-18.45,5.87-8.5,0-15.888-1.94-17.906-4.48H356v5.92c0,3.55,8.526,6.43,19,6.43,9.071,0,16.678-2.16,18.559-5.04h-0.653C390.89,7995.5,383.508,7997.44,375,7997.44Z" transform="translate(-353 -7953)"/>
</svg>
