<svg xmlns="http://www.w3.org/2000/svg" width="42" height="42" viewBox="0 0 42 42">
  <metadata><?xpacket begin="﻿" id="W5M0MpCehiHzreSzNTczkc9d"?>
<x:xmpmeta xmlns:x="adobe:ns:meta/" x:xmptk="Adobe XMP Core 5.6-c138 79.159824, 2016/09/14-01:09:01        ">
   <rdf:RDF xmlns:rdf="http://www.w3.org/1999/02/22-rdf-syntax-ns#">
      <rdf:Description rdf:about=""/>
   </rdf:RDF>
</x:xmpmeta>
                                                                                                    
                                                                                                    
                                                                                                    
                                                                                                    
                                                                                                    
                                                                                                    
                                                                                                    
                                                                                                    
                                                                                                    
                                                                                                    
                                                                                                    
                                                                                                    
                                                                                                    
                                                                                                    
                                                                                                    
                                                                                                    
                                                                                                    
                                                                                                    
                                                                                                    
                                                                                                    
                           
<?xpacket end="w"?></metadata>
<defs>
    <style>
      .cls-1 {
        fill: #b2b3b3;
        fill-rule: evenodd;
      }
    </style>
  </defs>
  <path id="home" class="cls-1" d="M545,7976h5v-7h-5v7Zm1-6h3v5h-3v-5Zm-1-3h5v-7h-5v7Zm1-6h3v5h-3v-5Zm-1,24h5v-7h-5v7Zm1-6h3v5h-3v-5Zm-1,15h5v-7h-5v7Zm1-6h3v5h-3v-5Zm31,9,0-21.56-12-9.9-1,.46v-10H541l0,41h-3v1h42v-1h-3Zm-23-22-1,.44V7997H542v-40h21v10l-4.006,3.49L559,7969h-5v6Zm4-5v2l-3,2v-4h3Zm10,27h-7v-15h7v15Zm1,0v-16h-9v16h-6v-21l11-8.51,11,8.51v21h-7Zm-10-37h-5v7h5v-7Zm-1,6h-3v-5h3v5Zm4,12h6v-1h-6v1Z" transform="translate(-538 -7956)"/>
</svg>
