<svg xmlns="http://www.w3.org/2000/svg" width="45" height="44" viewBox="0 0 45 44">
  <metadata><?xpacket begin="﻿" id="W5M0MpCehiHzreSzNTczkc9d"?>
<x:xmpmeta xmlns:x="adobe:ns:meta/" x:xmptk="Adobe XMP Core 5.6-c138 79.159824, 2016/09/14-01:09:01        ">
   <rdf:RDF xmlns:rdf="http://www.w3.org/1999/02/22-rdf-syntax-ns#">
      <rdf:Description rdf:about=""/>
   </rdf:RDF>
</x:xmpmeta>
                                                                                                    
                                                                                                    
                                                                                                    
                                                                                                    
                                                                                                    
                                                                                                    
                                                                                                    
                                                                                                    
                                                                                                    
                                                                                                    
                                                                                                    
                                                                                                    
                                                                                                    
                                                                                                    
                                                                                                    
                                                                                                    
                                                                                                    
                                                                                                    
                                                                                                    
                                                                                                    
                           
<?xpacket end="w"?></metadata>
<defs>
    <style>
      .cls-1 {
        fill: #b2b3b3;
        fill-rule: evenodd;
      }
    </style>
  </defs>
  <path id="mess" class="cls-1" d="M972.782,7999a0.942,0.942,0,0,1-.946-0.96v-5.12L967,7993c-2.075,0-3-1.98-3-4v-17a3.041,3.041,0,0,1,3-3h30a3.609,3.609,0,0,1,3,3v17c0,1.99-.971,3.89-2.859,3.92h-0.012L982,7993l-8.619,5.78A0.958,0.958,0,0,1,972.782,7999ZM967,7970a2.6,2.6,0,0,0-2.1,2.32v16.87c0,0.95,1.091,2.81,2.1,2.81h5a1.035,1.035,0,0,1,1,1v4l7.816-4.78a0.931,0.931,0,0,1,.6-0.21h0L997,7992c0.759-.01,2-1.97,2-3v-17a2.177,2.177,0,0,0-2-2H967Zm40,8h-4c-0.52,0-.56-0.14-0.56-0.67s0.04-.33.56-0.33h4c0.93,0,1-.95,1-2l0.1-17.39a1.636,1.636,0,0,0-1.69-1.7H976.151c-1.039,0-2.151.15-2.151,1.09v9a0.879,0.879,0,0,1-.679,1.08c-0.523,0-.321-0.55-0.321-1.08v-8c0-1.99.917-3,3-3h30c2.04,0,3,.94,3,3v17C1009,7977.1,1008.97,7978,1007,7978Z" transform="translate(-964 -7955)"/>
</svg>
